<?xml version="1.0" encoding="utf-8"?>
<!-- Generator: Adobe Illustrator 23.0.1, SVG Export Plug-In . SVG Version: 6.00 Build 0)  -->
<svg version="1.1" baseProfile="tiny" id="Layer_1" xmlns="http://www.w3.org/2000/svg" xmlns:xlink="http://www.w3.org/1999/xlink"
	 x="0px" y="0px" viewBox="0 0 48 27" xml:space="preserve">
<g>
	<rect y="21" fill="#FFFFFF" width="6" height="6"/>
	<rect y="12" fill="#FFFFFF" width="6" height="6"/>
	<path fill="#FFFFFF" d="M18,0c-4.96,0-9,4.04-9,9v9h6V9c0-1.65,1.35-3,3-3s3,1.35,3,3v9h6V9C27,4.04,22.96,0,18,0z"/>
	<path fill="#FFFFFF" d="M39,0h-9v27h6v-9h3c4.96,0,9-4.04,9-9S43.96,0,39,0z M39,12h-3V6h3c1.65,0,3,1.35,3,3S40.65,12,39,12z"/>
</g>
</svg>
