<?xml version="1.0" encoding="utf-8"?>
<!-- Generator: Adobe Illustrator 23.0.2, SVG Export Plug-In . SVG Version: 6.00 Build 0)  -->
<svg version="1.1" id="Layer_1" xmlns="http://www.w3.org/2000/svg" xmlns:xlink="http://www.w3.org/1999/xlink" x="0px" y="0px"
	 viewBox="0 0 68 68" style="enable-background:new 0 0 68 68;" xml:space="preserve">
<style type="text/css">
	.st0{fill:#FFFFFF;}
</style>
<path class="st0" d="M0,0v68h68V0H0z M34,15.3L22.7,4h25.2v25.2L34,15.3z M20.9,34L34,20.9L47.1,34L34,47.1L20.9,34z M15.3,34
	L4,45.3V20.1h25.2C29.2,20.1,15.3,34,15.3,34z M34,52.7L45.3,64H20.1V38.8L34,52.7z M52.2,34.5L64,22.7v25.2H38.8
	C38.8,47.9,52.2,34.5,52.2,34.5z M64,17.1L51.9,29.2V4H64V17.1z M17.1,4l12.1,12.1H4V4H17.1z M4,50.9l12.1-12.1V64H4V50.9z M50.9,64
	L38.8,51.9H64V64H50.9z"/>
</svg>
